<svg width="126" height="27" viewBox="0 0 126 27" fill="none" xmlns="http://www.w3.org/2000/svg">
<path d="M1.51705 3.54545H6.06818L10.875 15.2727H11.0795L15.8864 3.54545H20.4375V21H16.858V9.6392H16.7131L12.196 20.9148H9.75852L5.24148 9.59659H5.09659V21H1.51705V3.54545ZM30.0957 21.2557C28.7491 21.2557 27.59 20.983 26.6184 20.4375C25.6525 19.8864 24.9082 19.108 24.3855 18.1023C23.8628 17.0909 23.6014 15.8949 23.6014 14.5142C23.6014 13.1676 23.8628 11.9858 24.3855 10.9688C24.9082 9.9517 25.644 9.15909 26.5929 8.59091C27.5474 8.02273 28.6667 7.73864 29.9508 7.73864C30.8145 7.73864 31.6184 7.87784 32.3628 8.15625C33.1128 8.42898 33.7662 8.84091 34.323 9.39205C34.8855 9.94318 35.323 10.6364 35.6355 11.4716C35.948 12.3011 36.1042 13.2727 36.1042 14.3864V15.3835H25.0503V13.1335H32.6866C32.6866 12.6108 32.573 12.1477 32.3457 11.7443C32.1184 11.3409 31.8031 11.0256 31.3997 10.7983C31.002 10.5653 30.5389 10.4489 30.0105 10.4489C29.4593 10.4489 28.9707 10.5767 28.5446 10.8324C28.1241 11.0824 27.7946 11.4205 27.5559 11.8466C27.3173 12.267 27.1951 12.7358 27.1895 13.2528V15.392C27.1895 16.0398 27.3088 16.5994 27.5474 17.071C27.7917 17.5426 28.1355 17.9062 28.5787 18.1619C29.0218 18.4176 29.5474 18.5455 30.1554 18.5455C30.5588 18.5455 30.9281 18.4886 31.2633 18.375C31.5986 18.2614 31.8855 18.0909 32.1241 17.8636C32.3628 17.6364 32.5446 17.358 32.6696 17.0284L36.0275 17.25C35.8571 18.0568 35.5076 18.7614 34.9792 19.3636C34.4565 19.9602 33.7804 20.4261 32.9508 20.7614C32.127 21.0909 31.1753 21.2557 30.0957 21.2557ZM45.0913 26.1818C43.9151 26.1818 42.9066 26.0199 42.0657 25.696C41.2305 25.3778 40.5657 24.9432 40.0714 24.392C39.5771 23.8409 39.256 23.2216 39.1083 22.5341L42.4663 22.0824C42.5685 22.3438 42.7305 22.5881 42.9521 22.8153C43.1737 23.0426 43.4663 23.2244 43.8299 23.3608C44.1992 23.5028 44.6481 23.5739 45.1765 23.5739C45.9663 23.5739 46.6168 23.3807 47.1282 22.9943C47.6453 22.6136 47.9038 21.9744 47.9038 21.0767V18.6818H47.7504C47.5913 19.0455 47.3526 19.3892 47.0345 19.7131C46.7163 20.0369 46.3072 20.3011 45.8072 20.5057C45.3072 20.7102 44.7106 20.8125 44.0174 20.8125C43.0345 20.8125 42.1396 20.5852 41.3328 20.1307C40.5316 19.6705 39.8924 18.9687 39.4151 18.0256C38.9435 17.0767 38.7078 15.8778 38.7078 14.429C38.7078 12.946 38.9492 11.7074 39.4322 10.7131C39.9151 9.71875 40.5572 8.97443 41.3583 8.48011C42.1651 7.9858 43.0487 7.73864 44.0089 7.73864C44.7418 7.73864 45.3555 7.86364 45.8498 8.11364C46.3441 8.35795 46.7418 8.66477 47.043 9.03409C47.3498 9.39773 47.5856 9.75568 47.7504 10.108H47.8867V7.90909H51.4918V21.1278C51.4918 22.2415 51.2191 23.1733 50.6737 23.9233C50.1282 24.6733 49.3725 25.2358 48.4066 25.6108C47.4464 25.9915 46.3413 26.1818 45.0913 26.1818ZM45.168 18.0852C45.7532 18.0852 46.2475 17.9403 46.6509 17.6506C47.06 17.3551 47.3725 16.9347 47.5884 16.3892C47.81 15.8381 47.9208 15.179 47.9208 14.4119C47.9208 13.6449 47.8129 12.9801 47.597 12.4176C47.3811 11.8494 47.0686 11.4091 46.6595 11.0966C46.2504 10.7841 45.7532 10.6278 45.168 10.6278C44.5714 10.6278 44.0686 10.7898 43.6595 11.1136C43.2504 11.4318 42.9407 11.875 42.7305 12.4432C42.5203 13.0114 42.4151 13.6676 42.4151 14.4119C42.4151 15.1676 42.5203 15.821 42.7305 16.3722C42.9464 16.9176 43.256 17.3409 43.6595 17.642C44.0686 17.9375 44.5714 18.0852 45.168 18.0852ZM58.834 21.2472C57.9988 21.2472 57.2545 21.1023 56.6011 20.8125C55.9476 20.517 55.4306 20.0824 55.0499 19.5085C54.6749 18.929 54.4874 18.2074 54.4874 17.3438C54.4874 16.6165 54.6209 16.0057 54.888 15.5114C55.155 15.017 55.5187 14.6193 55.9789 14.3182C56.4391 14.017 56.9618 13.7898 57.5471 13.6364C58.138 13.483 58.7573 13.375 59.405 13.3125C60.1664 13.233 60.78 13.1591 61.2459 13.0909C61.7118 13.017 62.0499 12.9091 62.2601 12.767C62.4704 12.625 62.5755 12.4148 62.5755 12.1364V12.0852C62.5755 11.5455 62.405 11.1278 62.0641 10.8324C61.7289 10.5369 61.2516 10.3892 60.6323 10.3892C59.9789 10.3892 59.459 10.5341 59.0726 10.8239C58.6863 11.108 58.4306 11.4659 58.3056 11.8977L54.9476 11.625C55.1181 10.8295 55.4533 10.142 55.9533 9.5625C56.4533 8.97727 57.0982 8.52841 57.888 8.21591C58.6834 7.89773 59.6039 7.73864 60.6493 7.73864C61.3766 7.73864 62.0726 7.82386 62.7374 7.99432C63.4079 8.16477 64.0016 8.42898 64.5187 8.78693C65.0414 9.14489 65.4533 9.60511 65.7545 10.1676C66.0556 10.7244 66.2062 11.392 66.2062 12.1705V21H62.763V19.1847H62.6607C62.4505 19.5938 62.1692 19.9545 61.817 20.267C61.4647 20.5739 61.0414 20.8153 60.5471 20.9915C60.0528 21.1619 59.4817 21.2472 58.834 21.2472ZM59.8738 18.7415C60.4079 18.7415 60.8795 18.6364 61.2886 18.4261C61.6976 18.2102 62.0187 17.9205 62.2516 17.5568C62.4846 17.1932 62.6011 16.7812 62.6011 16.321V14.9318C62.4874 15.0057 62.3312 15.0739 62.1323 15.1364C61.9391 15.1932 61.7204 15.2472 61.4761 15.2983C61.2317 15.3437 60.9874 15.3864 60.7431 15.4261C60.4988 15.4602 60.2772 15.4915 60.0783 15.5199C59.6522 15.5824 59.28 15.6818 58.9618 15.8182C58.6437 15.9545 58.3965 16.1392 58.2204 16.3722C58.0442 16.5994 57.9562 16.8835 57.9562 17.2244C57.9562 17.7188 58.1351 18.0966 58.4931 18.358C58.8567 18.6136 59.317 18.7415 59.8738 18.7415ZM69.8111 3.54545H74.3622L79.1691 15.2727H79.3736L84.1804 3.54545H88.7316V21H85.152V9.6392H85.0071L80.4901 20.9148H78.0526L73.5355 9.59659H73.3907V21H69.8111V3.54545ZM96.1568 21.2472C95.3216 21.2472 94.5773 21.1023 93.9239 20.8125C93.2705 20.517 92.7534 20.0824 92.3727 19.5085C91.9977 18.929 91.8102 18.2074 91.8102 17.3438C91.8102 16.6165 91.9437 16.0057 92.2108 15.5114C92.4778 15.017 92.8415 14.6193 93.3017 14.3182C93.7619 14.017 94.2847 13.7898 94.8699 13.6364C95.4608 13.483 96.0801 13.375 96.7278 13.3125C97.4892 13.233 98.1028 13.1591 98.5687 13.0909C99.0347 13.017 99.3727 12.9091 99.583 12.767C99.7932 12.625 99.8983 12.4148 99.8983 12.1364V12.0852C99.8983 11.5455 99.7278 11.1278 99.3869 10.8324C99.0517 10.5369 98.5744 10.3892 97.9551 10.3892C97.3017 10.3892 96.7818 10.5341 96.3955 10.8239C96.0091 11.108 95.7534 11.4659 95.6284 11.8977L92.2705 11.625C92.4409 10.8295 92.7761 10.142 93.2761 9.5625C93.7761 8.97727 94.421 8.52841 95.2108 8.21591C96.0062 7.89773 96.9267 7.73864 97.9722 7.73864C98.6994 7.73864 99.3955 7.82386 100.06 7.99432C100.731 8.16477 101.324 8.42898 101.841 8.78693C102.364 9.14489 102.776 9.60511 103.077 10.1676C103.378 10.7244 103.529 11.392 103.529 12.1705V21H100.086V19.1847H99.9835C99.7733 19.5938 99.492 19.9545 99.1398 20.267C98.7875 20.5739 98.3642 20.8153 97.8699 20.9915C97.3756 21.1619 96.8045 21.2472 96.1568 21.2472ZM97.1966 18.7415C97.7307 18.7415 98.2023 18.6364 98.6114 18.4261C99.0205 18.2102 99.3415 17.9205 99.5744 17.5568C99.8074 17.1932 99.9239 16.7812 99.9239 16.321V14.9318C99.8102 15.0057 99.654 15.0739 99.4551 15.1364C99.2619 15.1932 99.0432 15.2472 98.7989 15.2983C98.5545 15.3437 98.3102 15.3864 98.0659 15.4261C97.8216 15.4602 97.6 15.4915 97.4011 15.5199C96.975 15.5824 96.6028 15.6818 96.2847 15.8182C95.9665 15.9545 95.7193 16.1392 95.5432 16.3722C95.367 16.5994 95.279 16.8835 95.279 17.2244C95.279 17.7188 95.458 18.0966 95.8159 18.358C96.1795 18.6136 96.6398 18.7415 97.1966 18.7415ZM107.066 21V7.90909H110.586V10.1932H110.722C110.961 9.38068 111.361 8.76705 111.924 8.35227C112.486 7.93182 113.134 7.72159 113.867 7.72159C114.049 7.72159 114.245 7.73295 114.455 7.75568C114.665 7.77841 114.85 7.80966 115.009 7.84943V11.071C114.838 11.0199 114.603 10.9744 114.302 10.9347C114 10.8949 113.725 10.875 113.475 10.875C112.941 10.875 112.463 10.9915 112.043 11.2244C111.628 11.4517 111.299 11.7699 111.054 12.179C110.816 12.5881 110.696 13.0597 110.696 13.5938V21H107.066ZM125.225 7.90909V10.6364H117.342V7.90909H125.225ZM119.132 4.77273H122.762V16.9773C122.762 17.3125 122.813 17.5739 122.916 17.7614C123.018 17.9432 123.16 18.071 123.342 18.1449C123.529 18.2187 123.745 18.2557 123.99 18.2557C124.16 18.2557 124.33 18.2415 124.501 18.2131C124.671 18.179 124.802 18.1534 124.893 18.1364L125.464 20.8381C125.282 20.8949 125.027 20.9602 124.697 21.0341C124.367 21.1136 123.967 21.1619 123.495 21.179C122.62 21.2131 121.853 21.0966 121.194 20.8295C120.541 20.5625 120.032 20.1477 119.669 19.5852C119.305 19.0227 119.126 18.3125 119.132 17.4545V4.77273Z" fill="black"/>
</svg>
