<svg viewBox="0 0 395.52 83.15893152008493" height="83.15893152008493" width="395.52">
    <g>
        <svg viewBox="0 0 524.6791313891758 110.31491696301103" height="83.15893152008493"
            width="395.52">
            <g transform="matrix(1,0,0,1,0,15.246128176508762)">
                <svg viewBox="0 0 395.52 79.8226606099935" height="79.8226606099935" width="395.52">
                    <g id="textblocktransform">
                        <svg viewBox="0 0 395.52 79.8226606099935" height="79.8226606099935"
                            width="395.52" id="textblock">
                            <g>
                                <svg viewBox="0 0 395.52 79.8226606099935" height="79.8226606099935"
                                    width="395.52">
                                    <g transform="matrix(1,0,0,1,0,0)">
                                        <svg width="395.52"
                                            viewBox="4.449999809265137 -35.5 231.1300048828125 46.650001525878906"
                                            height="79.8226606099935" data-palette-color="#000000">
                                            <path
                                                d="M39.4 0L35.9 0 35.9-28.9 23.05-6.45 20.85-6.45 7.95-28.9 7.95 0 4.45 0 4.45-35.5 8.05-35.5 21.9-11.2 35.85-35.5 39.4-35.5 39.4 0ZM58.45 0.5L58.45 0.5Q55.65 0.5 53.25-0.58 50.85-1.65 49.1-3.53 47.35-5.4 46.37-7.85 45.4-10.3 45.4-13.1L45.4-13.1Q45.4-16.75 47.07-19.8 48.75-22.85 51.7-24.68 54.65-26.5 58.4-26.5L58.4-26.5Q62.25-26.5 65.12-24.65 68-22.8 69.65-19.78 71.3-16.75 71.3-13.15L71.3-13.15Q71.3-12.75 71.3-12.38 71.3-12 71.25-11.8L71.25-11.8 48.95-11.8Q49.2-9 50.52-6.83 51.85-4.65 53.97-3.38 56.1-2.1 58.6-2.1L58.6-2.1Q61.15-2.1 63.42-3.4 65.7-4.7 66.6-6.8L66.6-6.8 69.55-6Q68.75-4.15 67.1-2.65 65.45-1.15 63.22-0.33 61 0.5 58.45 0.5ZM48.85-14.25L48.85-14.25 68.1-14.25Q67.9-17.1 66.57-19.25 65.25-21.4 63.12-22.63 61-23.85 58.45-23.85L58.45-23.85Q55.9-23.85 53.8-22.63 51.7-21.4 50.37-19.23 49.05-17.05 48.85-14.25ZM87 0.35L87 0.35Q84.35 0.35 82.1-0.75 79.85-1.85 78.22-3.73 76.6-5.6 75.7-8 74.8-10.4 74.8-12.95L74.8-12.95Q74.8-15.7 75.67-18.13 76.55-20.55 78.17-22.45 79.8-24.35 82-25.43 84.2-26.5 86.9-26.5L86.9-26.5Q90.25-26.5 92.72-24.8 95.2-23.1 96.9-20.6L96.9-20.6 96.9-26.05 99.95-26.05 99.95 0.1Q99.95 3.7 98.22 6.18 96.5 8.65 93.57 9.9 90.65 11.15 87.2 11.15L87.2 11.15Q82.75 11.15 80 9.55 77.25 7.95 75.5 5.25L75.5 5.25 77.6 3.6Q79.15 6.05 81.72 7.25 84.3 8.45 87.2 8.45L87.2 8.45Q89.75 8.45 91.87 7.53 94 6.6 95.27 4.75 96.55 2.9 96.55 0.1L96.55 0.1 96.55-5.05Q95.05-2.6 92.45-1.13 89.85 0.35 87 0.35ZM87.95-2.5L87.95-2.5Q89.5-2.5 90.92-3.05 92.35-3.6 93.55-4.53 94.75-5.45 95.55-6.6 96.35-7.75 96.55-8.95L96.55-8.95 96.55-17Q95.8-18.9 94.4-20.38 93-21.85 91.22-22.68 89.45-23.5 87.55-23.5L87.55-23.5Q85.35-23.5 83.62-22.58 81.9-21.65 80.72-20.13 79.55-18.6 78.9-16.7 78.25-14.8 78.25-12.9L78.25-12.9Q78.25-10.8 79-8.93 79.75-7.05 81.07-5.58 82.4-4.1 84.17-3.3 85.95-2.5 87.95-2.5ZM105.34-7.5L105.34-7.5Q105.34-9.95 106.74-11.73 108.14-13.5 110.62-14.48 113.09-15.45 116.34-15.45L116.34-15.45Q118.24-15.45 120.29-15.15 122.34-14.85 123.94-14.25L123.94-14.25 123.94-16.45Q123.94-19.75 121.99-21.7 120.04-23.65 116.59-23.65L116.59-23.65Q114.49-23.65 112.47-22.88 110.44-22.1 108.24-20.6L108.24-20.6 106.94-23Q109.49-24.75 111.94-25.63 114.39-26.5 116.94-26.5L116.94-26.5Q121.74-26.5 124.54-23.75 127.34-21 127.34-16.15L127.34-16.15 127.34-4.1Q127.34-3.4 127.64-3.08 127.94-2.75 128.59-2.7L128.59-2.7 128.59 0Q128.04 0.05 127.64 0.1 127.24 0.15 127.04 0.1L127.04 0.1Q125.79 0.05 125.14-0.7 124.49-1.45 124.44-2.3L124.44-2.3 124.39-4.2Q122.64-1.95 119.84-0.73 117.04 0.5 114.14 0.5L114.14 0.5Q111.64 0.5 109.62-0.58 107.59-1.65 106.47-3.48 105.34-5.3 105.34-7.5ZM122.79-5.5L122.79-5.5Q123.34-6.2 123.64-6.85 123.94-7.5 123.94-8L123.94-8 123.94-11.8Q122.24-12.45 120.42-12.8 118.59-13.15 116.74-13.15L116.74-13.15Q113.09-13.15 110.84-11.7 108.59-10.25 108.59-7.75L108.59-7.75Q108.59-6.3 109.34-5.03 110.09-3.75 111.54-2.93 112.99-2.1 114.94-2.1L114.94-2.1Q117.39-2.1 119.52-3.05 121.64-4 122.79-5.5ZM170.34 0L166.84 0 166.84-28.9 153.99-6.45 151.79-6.45 138.89-28.9 138.89 0 135.39 0 135.39-35.5 138.99-35.5 152.84-11.2 166.79-35.5 170.34-35.5 170.34 0ZM176.19-7.5L176.19-7.5Q176.19-9.95 177.59-11.73 178.99-13.5 181.46-14.48 183.94-15.45 187.19-15.45L187.19-15.45Q189.09-15.45 191.14-15.15 193.19-14.85 194.79-14.25L194.79-14.25 194.79-16.45Q194.79-19.75 192.84-21.7 190.89-23.65 187.44-23.65L187.44-23.65Q185.34-23.65 183.31-22.88 181.29-22.1 179.09-20.6L179.09-20.6 177.79-23Q180.34-24.75 182.79-25.63 185.24-26.5 187.79-26.5L187.79-26.5Q192.59-26.5 195.39-23.75 198.19-21 198.19-16.15L198.19-16.15 198.19-4.1Q198.19-3.4 198.49-3.08 198.79-2.75 199.44-2.7L199.44-2.7 199.44 0Q198.89 0.05 198.49 0.1 198.09 0.15 197.89 0.1L197.89 0.1Q196.64 0.05 195.99-0.7 195.34-1.45 195.29-2.3L195.29-2.3 195.24-4.2Q193.49-1.95 190.69-0.73 187.89 0.5 184.99 0.5L184.99 0.5Q182.49 0.5 180.46-0.58 178.44-1.65 177.31-3.48 176.19-5.3 176.19-7.5ZM193.64-5.5L193.64-5.5Q194.19-6.2 194.49-6.85 194.79-7.5 194.79-8L194.79-8 194.79-11.8Q193.09-12.45 191.26-12.8 189.44-13.15 187.59-13.15L187.59-13.15Q183.94-13.15 181.69-11.7 179.44-10.25 179.44-7.75L179.44-7.75Q179.44-6.3 180.19-5.03 180.94-3.75 182.39-2.93 183.84-2.1 185.79-2.1L185.79-2.1Q188.24-2.1 190.36-3.05 192.49-4 193.64-5.5ZM218.54-26.15L218.54-23.05Q215.14-22.95 212.56-21.15 209.99-19.35 208.94-16.2L208.94-16.2 208.94 0 205.54 0 205.54-26.05 208.74-26.05 208.74-19.8Q210.09-22.55 212.31-24.25 214.54-25.95 217.04-26.15L217.04-26.15Q217.54-26.2 217.91-26.2 218.29-26.2 218.54-26.15L218.54-26.15ZM234.68-4L235.58-1.25Q235.18-1.1 234.33-0.7 233.48-0.3 232.28 0 231.08 0.3 229.68 0.3L229.68 0.3Q228.23 0.3 226.96-0.25 225.68-0.8 224.93-1.93 224.18-3.05 224.18-4.7L224.18-4.7 224.18-23.35 220.58-23.35 220.58-26.05 224.18-26.05 224.18-34.85 227.58-34.85 227.58-26.05 233.58-26.05 233.58-23.35 227.58-23.35 227.58-5.65Q227.68-4.25 228.61-3.55 229.53-2.85 230.73-2.85L230.73-2.85Q232.13-2.85 233.28-3.33 234.43-3.8 234.68-4L234.68-4Z"
                                                opacity="1" transform="matrix(1,0,0,1,0,0)"
                                                fill="#000000" class="wordmark-text-0"
                                                data-fill-palette-color="primary" id="text-0"></path>
                                        </svg>
                                    </g>
                                </svg>
                            </g>
                        </svg>
                    </g>
                </svg>
            </g>
            <g transform="matrix(1,0,0,1,414.36421442616484,0)">
                <svg viewBox="0 0 110.31491696301103 110.31491696301103" height="110.31491696301103"
                    width="110.31491696301103">
                    <g data-palette-color="#d2d6dc">
                        <rect width="30.152743969889684" height="110.31491696301103" fill="#d2d6dc"
                            stroke="transparent" data-fill-palette-color="accent" x="0"
                            fill-opacity="1"></rect>
                        <rect width="30.152743969889684" height="110.31491696301103" fill="#d2d6dc"
                            stroke="transparent" data-fill-palette-color="accent"
                            x="36.77163898767034" fill-opacity="0.75"></rect>
                        <rect width="30.152743969889684" height="110.31491696301103" fill="#d2d6dc"
                            stroke="transparent" data-fill-palette-color="accent"
                            x="73.54327797534069" fill-opacity="0.5"></rect>
                    </g>
                </svg>
            </g>
        </svg>
    </g>
    <defs></defs>
</svg>