<svg width="21" height="22" viewBox="0 0 21 22" fill="none" xmlns="http://www.w3.org/2000/svg">
    <path
        d="M19.1727 7.92428V4.04729C19.1727 2.8432 18.6262 2.35645 17.2684 2.35645H13.8184C12.4606 2.35645 11.9141 2.8432 11.9141 4.04729V7.91574C11.9141 9.12837 12.4606 9.60659 13.8184 9.60659H17.2684C18.6262 9.61513 19.1727 9.12837 19.1727 7.92428Z"
        stroke="black" stroke-width="1.02476" stroke-linecap="round" stroke-linejoin="round" />
    <path
        d="M19.1727 17.5314V14.0813C19.1727 12.7235 18.6262 12.177 17.2684 12.177H13.8184C12.4606 12.177 11.9141 12.7235 11.9141 14.0813V17.5314C11.9141 18.8892 12.4606 19.4357 13.8184 19.4357H17.2684C18.6262 19.4357 19.1727 18.8892 19.1727 17.5314Z"
        stroke="black" stroke-width="1.02476" stroke-linecap="round" stroke-linejoin="round" />
    <path
        d="M9.35048 7.92428V4.04729C9.35048 2.8432 8.80395 2.35645 7.44614 2.35645H3.99613C2.63833 2.35645 2.0918 2.8432 2.0918 4.04729V7.91574C2.0918 9.12837 2.63833 9.60659 3.99613 9.60659H7.44614C8.80395 9.61513 9.35048 9.12837 9.35048 7.92428Z"
        stroke="black" stroke-width="1.02476" stroke-linecap="round" stroke-linejoin="round" />
    <path
        d="M9.35048 17.5314V14.0813C9.35048 12.7235 8.80395 12.177 7.44614 12.177H3.99613C2.63833 12.177 2.0918 12.7235 2.0918 14.0813V17.5314C2.0918 18.8892 2.63833 19.4357 3.99613 19.4357H7.44614C8.80395 19.4357 9.35048 18.8892 9.35048 17.5314Z"
        stroke="black" stroke-width="1.02476" stroke-linecap="round" stroke-linejoin="round" />
</svg>