<svg width="21" height="22" viewBox="0 0 21 22" fill="none" xmlns="http://www.w3.org/2000/svg">
    <path d="M7.64453 12.8076C7.64453 14.4472 8.99379 15.7965 10.6334 15.7965C12.273 15.7965 13.6223 14.4472 13.6223 12.8076" stroke="black" stroke-width="1.02476" stroke-miterlimit="10" stroke-linecap="round" stroke-linejoin="round"/>
    <path d="M7.90775 2.34668L4.81641 5.44657" stroke="black" stroke-width="1.02476" stroke-miterlimit="10" stroke-linecap="round" stroke-linejoin="round"/>
    <path d="M13.3555 2.34668L16.4468 5.44657" stroke="black" stroke-width="1.02476" stroke-miterlimit="10" stroke-linecap="round" stroke-linejoin="round"/>
    <path d="M2.0918 7.3422C2.0918 5.76237 2.93722 5.63428 3.98759 5.63428H17.2753C18.3256 5.63428 19.1711 5.76237 19.1711 7.3422C19.1711 9.17822 18.3256 9.05013 17.2753 9.05013H3.98759C2.93722 9.05013 2.0918 9.17822 2.0918 7.3422Z" stroke="black" stroke-width="1.02476"/>
    <path d="M3.37305 9.17822L4.57713 16.5565C4.8504 18.2132 5.50795 19.4258 7.95029 19.4258H13.0997C15.7555 19.4258 16.1483 18.2644 16.4558 16.6589L17.8904 9.17822" stroke="black" stroke-width="1.02476" stroke-linecap="round"/>
  </svg>